HIERARCHY
ROOT hip
{
  OFFSET 56.9566 51.3355 34.8025
  CHANNELS 6 Xposition Yposition Zposition Zrotation Xrotation Yrotation
  JOINT abdomen
  {
    OFFSET 0 20.6881 -0.73152
    CHANNELS 3 Zrotation Xrotation Yrotation
    JOINT chest
    {
      OFFSET 0 11.7043 -0.48768
      CHANNELS 3 Zrotation Xrotation Yrotation
      JOINT neck
      {
        OFFSET 0 22.1894 -2.19456
        CHANNELS 3 Zrotation Xrotation Yrotation
        JOINT head
        {
          OFFSET -0.24384 7.07133 1.2192
          CHANNELS 3 Zrotation Xrotation Yrotation
          JOINT leftEye
          {
            OFFSET 4.14528 8.04674 8.04672
            CHANNELS 3 Zrotation Xrotation Yrotation
            End Site
            {
              OFFSET 1 0 0
            }
          }
          JOINT rightEye
          {
            OFFSET -3.6576 8.04674 8.04672
            CHANNELS 3 Zrotation Xrotation Yrotation
            End Site
            {
              OFFSET 1 0 0
            }
          }
        }
      }
      JOINT rCollar
      {
        OFFSET -2.68224 19.2634 -4.8768
        CHANNELS 3 Zrotation Xrotation Yrotation
        JOINT rShldr
        {
          OFFSET -8.77824 -1.95073 1.46304
          CHANNELS 3 Zrotation Xrotation Yrotation
          JOINT rForeArm
          {
            OFFSET -28.1742 -1.7115 0.48768
            CHANNELS 3 Zrotation Xrotation Yrotation
            JOINT rHand
            {
              OFFSET -22.5879 0.773209 7.07136
              CHANNELS 3 Zrotation Xrotation Yrotation
              JOINT rThumb1
              {
                OFFSET -1.2192 -0.487915 3.41376
                CHANNELS 3 Zrotation Xrotation Yrotation
                JOINT rThumb2
                {
                  OFFSET -3.37035 -0.52449 3.41376
                  CHANNELS 3 Zrotation Xrotation Yrotation
                  End Site
                  {
                    OFFSET -1.78271 -1.18214 1.43049
                  }
                }
              }
              JOINT rIndex1
              {
                OFFSET -7.75947 0.938293 5.60832
                CHANNELS 3 Zrotation Xrotation Yrotation
                JOINT rIndex2
                {
                  OFFSET -2.54057 -0.884171 1.56538
                  CHANNELS 3 Zrotation Xrotation Yrotation
                  End Site
                  {
                    OFFSET -1.62519 -0.234802 1.16502
                  }
                }
              }
              JOINT rMid1
              {
                OFFSET -8.24714 1.18213 3.41376
                CHANNELS 3 Zrotation Xrotation Yrotation
                JOINT rMid2
                {
                  OFFSET -3.10165 -0.590103 1.0647
                  CHANNELS 3 Zrotation Xrotation Yrotation
                  End Site
                  {
                    OFFSET -2.48547 -0.328903 0.83742
                  }
                }
              }
              JOINT rRing1
              {
                OFFSET -8.82822 0.546677 1.51678
                CHANNELS 3 Zrotation Xrotation Yrotation
                JOINT rRing2
                {
                  OFFSET -2.60934 -0.819778 -0.0198488
                  CHANNELS 3 Zrotation Xrotation Yrotation
                  End Site
                  {
                    OFFSET -2.33842 -0.294052 0.168128
                  }
                }
              }
              JOINT rPinky1
              {
                OFFSET -8.27202 -0.0477905 -0.4584
                CHANNELS 3 Zrotation Xrotation Yrotation
                JOINT rPinky2
                {
                  OFFSET -1.82734 -0.647385 -0.700984
                  CHANNELS 3 Zrotation Xrotation Yrotation
                  End Site
                  {
                    OFFSET -1.69225 -0.51767 -0.607171
                  }
                }
              }
            }
          }
        }
      }
      JOINT lCollar
      {
        OFFSET 2.68224 19.2634 -4.8768
        CHANNELS 3 Zrotation Xrotation Yrotation
        JOINT lShldr
        {
          OFFSET 8.77824 -1.95073 1.46304
          CHANNELS 3 Zrotation Xrotation Yrotation
          JOINT lForeArm
          {
            OFFSET 28.1742 -1.7115 0.48768
            CHANNELS 3 Zrotation Xrotation Yrotation
            JOINT lHand
            {
              OFFSET 22.5879 0.773209 7.07136
              CHANNELS 3 Zrotation Xrotation Yrotation
              JOINT lThumb1
              {
                OFFSET 1.2192 -0.487915 3.41376
                CHANNELS 3 Zrotation Xrotation Yrotation
                JOINT lThumb2
                {
                  OFFSET 3.37035 -0.52449 3.41376
                  CHANNELS 3 Zrotation Xrotation Yrotation
                  End Site
                  {
                    OFFSET 1.78271 -1.18214 1.43049
                  }
                }
              }
              JOINT lIndex1
              {
                OFFSET 7.75947 0.938293 5.60832
                CHANNELS 3 Zrotation Xrotation Yrotation
                JOINT lIndex2
                {
                  OFFSET 2.54057 -0.884171 1.56538
                  CHANNELS 3 Zrotation Xrotation Yrotation
                  End Site
                  {
                    OFFSET 1.62519 -0.234802 1.16502
                  }
                }
              }
              JOINT lMid1
              {
                OFFSET 8.24714 1.18213 3.41376
                CHANNELS 3 Zrotation Xrotation Yrotation
                JOINT lMid2
                {
                  OFFSET 3.10165 -0.590103 1.0647
                  CHANNELS 3 Zrotation Xrotation Yrotation
                  End Site
                  {
                    OFFSET 2.48547 -0.328903 0.83742
                  }
                }
              }
              JOINT lRing1
              {
                OFFSET 8.82822 0.546677 1.51678
                CHANNELS 3 Zrotation Xrotation Yrotation
                JOINT lRing2
                {
                  OFFSET 2.60934 -0.819778 -0.0198488
                  CHANNELS 3 Zrotation Xrotation Yrotation
                  End Site
                  {
                    OFFSET 2.33842 -0.294052 0.168128
                  }
                }
              }
              JOINT lPinky1
              {
                OFFSET 8.27202 -0.0477905 -0.4584
                CHANNELS 3 Zrotation Xrotation Yrotation
                JOINT lPinky2
                {
                  OFFSET 1.82734 -0.647385 -0.700984
                  CHANNELS 3 Zrotation Xrotation Yrotation
                  End Site
                  {
                    OFFSET 1.69225 -0.51767 -0.607171
                  }
                }
              }
            }
          }
        }
      }
    }
  }
  JOINT rButtock
  {
    OFFSET -8.77824 4.35084 1.2192
    CHANNELS 3 Zrotation Xrotation Yrotation
    JOINT rThigh
    {
      OFFSET 0 -1.70687 -2.19456
      CHANNELS 3 Zrotation Xrotation Yrotation
      JOINT rShin
      {
        OFFSET 0 -36.8199 0.73152
        CHANNELS 3 Zrotation Xrotation Yrotation
        JOINT rFoot
        {
          OFFSET 0.73152 -45.1104 -5.12064
          CHANNELS 3 Zrotation Xrotation Yrotation
          End Site
          {
            OFFSET -1.1221 -3.69964 12.103
          }
        }
      }
    }
  }
  JOINT lButtock
  {
    OFFSET 8.77824 4.35084 1.2192
    CHANNELS 3 Zrotation Xrotation Yrotation
    JOINT lThigh
    {
      OFFSET 0 -1.70687 -2.19456
      CHANNELS 3 Zrotation Xrotation Yrotation
      JOINT lShin
      {
        OFFSET 0 -36.8199 0.73152
        CHANNELS 3 Zrotation Xrotation Yrotation
        JOINT lFoot
        {
          OFFSET -0.73152 -45.1104 -5.12064
          CHANNELS 3 Zrotation Xrotation Yrotation
          End Site
          {
            OFFSET 1.1221 -3.69964 12.103
          }
        }
      }
    }
  }
}
MOTION
Frames:	5
Frame Time:	0.00833333
57.0711 49.5307 31.517 -0.311918 -0.00136749 0.0053036 0.410577 -0.00336396 0.0117802 0.113455 -0.00539474 0.0196587 3.58511e-015 0 6.21204e-018 1.07375e-014 3.18055e-015 2.79541e-017 -0 0 0 -0 0 0 1.83742e-015 -1.26182e-017 1.49089e-016 3.89547e-014 -5.8393e-016 1.19271e-015 6.46945e-013 -2.01568e-013 2.22639e-014 7.4112e-012 1.54207e-013 2.22639e-014 1.74784e-011 -9.74955e-014 1.11319e-013 3.01843e-011 -1.68569e-013 1.86858e-013 1.74847e-011 -9.50191e-014 1.08139e-013 7.73091 5.47488 0.417314 1.74789e-011 -9.70069e-014 1.11319e-013 2.90554 0.965183 0.102902 1.74875e-011 -9.72057e-014 1.08139e-013 10.2786 0.731801 0.0259123 1.74785e-011 -9.74045e-014 1.145e-013 2.22167 -0.733487 -0.20892 1.74082e-015 -1.26182e-017 -1.49089e-016 3.54185e-014 -2.60905e-016 -3.97569e-016 6.4615e-013 1.87255e-013 -6.36111e-015 7.40369e-012 -2.29e-013 5.725e-014 1.74669e-011 -9.01547e-014 1.01778e-013 3.01699e-011 -1.59028e-013 1.82882e-013 1.74644e-011 -8.74653e-014 1.08139e-013 -7.73091 5.47488 -0.417314 1.74671e-011 -8.97513e-014 9.85972e-014 -2.90554 0.965183 -0.102902 1.74567e-011 -8.99501e-014 1.04163e-013 -10.2786 0.731801 -0.0259123 1.74718e-011 -8.8658e-014 1.01778e-013 -2.22167 -0.733487 0.20892 -2.03217e-016 0 -3.88251e-019 0.770866 -4.17179 -0.0656905 -0.00265673 2.00548 -0.018287 -0.462101 2.1669 0.0961373 2.03217e-016 0 3.88251e-019 -0.142974 -2.55997 0.0260628 0.00716131 -0.914062 0.0621552 0.453503 3.47456 -0.121186 
56.7883 51.6191 35.1356 -0.312359 5.16132 -0.363595 -0.549699 0.411251 0.472844 0.00449706 0.632377 0.121814 1.91602 1.50576 -0.286948 0.0790565 -13.4923 -0.916999 -0 0 0 -0 0 0 -3.932e-015 1.11857e-013 7.22109e-015 -4.24899 -17.6933 18.7428 -2.632 -0.992898 4.3051 0.131604 8.06224 1.09298 -7.95736e-010 1.30296e-009 -2.43224e-010 -1.37848e-009 2.45681e-009 -4.00819e-010 -7.95731e-010 1.30295e-009 -2.4323e-010 7.73091 5.47488 0.417314 -7.95736e-010 1.30296e-009 -2.43227e-010 2.90554 0.965183 0.102902 -7.95726e-010 1.30295e-009 -2.43229e-010 10.2786 0.731801 0.0259123 -7.95738e-010 1.30296e-009 -2.43222e-010 2.22167 -0.733487 -0.20892 -4.07245e-015 1.11856e-013 6.92174e-015 2.1875 1.29107e-009 -7.13218e-011 -1.59442e-011 7.42271e-011 -3.88522e-012 7.77049e-012 3.69632e-010 -5.94419e-011 -1.75159e-011 9.61956e-010 -1.3731e-010 -3.0158e-011 1.66093e-009 -2.371e-010 -1.75189e-011 9.61956e-010 -1.37305e-010 -7.73091 5.47488 -0.417314 -1.75156e-011 9.61955e-010 -1.37313e-010 -2.90554 0.965183 -0.102902 -1.7523e-011 9.61954e-010 -1.37309e-010 -10.2786 0.731801 -0.0259123 -1.75103e-011 9.61956e-010 -1.37312e-010 -2.22167 -0.733487 0.20892 -2.03217e-016 0 -3.88251e-019 -2.29664 -21.9638 -2.30552 0.000402695 1.81223 0.0100173 -0.162769 2.19396 0.0568676 2.03217e-016 0 3.88251e-019 3.45948 -21.3771 1.69363 0.005706 -0.934134 0.0491586 0.160759 3.50243 -0.0795168 
56.7821 51.6203 35.1478 -0.243377 10.6205 -0.760456 -1.56604 0.848901 0.958961 -0.115249 1.3067 0.229519 3.99798 3.03414 -0.599152 -0.438123 -27.6518 -2.13652 -0 0 0 -0 0 0 -9.93314e-015 2.30983e-013 1.50983e-014 4.39146 -29.8014 43.4883 -5.25387 -2.0245 8.86235 -0.0767957 16.5684 2.32181 -1.64672e-009 2.643e-009 -5.00154e-010 -2.85259e-009 4.98738e-009 -8.24424e-010 -1.64672e-009 2.64299e-009 -5.00164e-010 7.73091 5.47488 0.417314 -1.64673e-009 2.643e-009 -5.00162e-010 2.90554 0.965183 0.102902 -1.64671e-009 2.643e-009 -5.00162e-010 10.2786 0.731801 0.0259123 -1.64673e-009 2.643e-009 -5.00153e-010 2.22167 -0.733487 -0.20892 -1.01199e-014 2.30981e-013 1.4797e-014 4.5 2.65591e-009 -1.46719e-010 -3.31183e-011 1.5158e-010 -7.84265e-012 9.87688e-012 7.55606e-010 -1.20557e-010 -4.99346e-011 1.96594e-009 -2.7838e-010 -8.60362e-011 3.39436e-009 -4.80693e-010 -4.99382e-011 1.96593e-009 -2.78376e-010 -7.73091 5.47488 -0.417314 -4.99343e-011 1.96593e-009 -2.78382e-010 -2.90554 0.965183 -0.102902 -4.99384e-011 1.96593e-009 -2.7838e-010 -10.2786 0.731801 -0.0259123 -4.99283e-011 1.96593e-009 -2.78383e-010 -2.22167 -0.733487 0.20892 -2.03217e-016 0 -3.88251e-019 -7.4942 -40.6656 -5.71154 0.00384714 1.60815 0.0399548 0.153709 2.22242 0.0153508 2.03217e-016 0 3.88251e-019 8.82497 -41.2103 4.27799 0.00415736 -0.955445 0.0354164 -0.148764 3.53195 -0.0354634 
56.7731 51.6209 35.1576 -0.107443 15.4841 -1.13829 -2.49027 1.24016 1.39526 -0.220245 1.90789 0.326283 5.79343 4.51684 -0.863227 -1.40215 -40.4285 -3.51513 -0 0 0 -0 0 0 -1.54708e-014 3.35597e-013 2.13651e-014 19.4248 -29.5076 67.4269 -7.45208 -2.91151 12.9303 -0.602612 24.1498 3.55831 -2.42216e-009 3.90907e-009 -7.29894e-010 -4.19581e-009 7.37076e-009 -1.20283e-009 -2.42216e-009 3.90905e-009 -7.29907e-010 7.73091 5.47488 0.417314 -2.42217e-009 3.90907e-009 -7.29905e-010 2.90554 0.965183 0.102902 -2.42215e-009 3.90906e-009 -7.29904e-010 10.2786 0.731801 0.0259123 -2.42217e-009 3.90907e-009 -7.29894e-010 2.22167 -0.733487 -0.20892 -1.5699e-014 3.35594e-013 2.10634e-014 6.5625 3.8732e-009 -2.13965e-010 -4.91249e-011 2.22307e-010 -1.16429e-011 8.5041e-012 1.10935e-009 -1.7844e-010 -8.74813e-011 2.88605e-009 -4.12134e-010 -1.50814e-010 4.9831e-009 -7.11666e-010 -8.74855e-011 2.88604e-009 -4.12131e-010 -7.73091 5.47488 -0.417314 -8.7481e-011 2.88604e-009 -4.12137e-010 -2.90554 0.965183 -0.102902 -8.74822e-011 2.88604e-009 -4.12136e-010 -10.2786 0.731801 -0.0259123 -8.74744e-011 2.88604e-009 -4.12139e-010 -2.22167 -0.733487 0.20892 -2.03217e-016 0 -3.88251e-019 -15.6364 -57.0577 -11.6107 0.00709451 1.42574 0.0666089 0.436006 2.24807 -0.021676 2.03217e-016 0 3.88251e-019 16.5569 -58.7199 9.03932 0.00276805 -0.974277 0.023165 -0.424849 3.55814 0.00382914 
56.7719 51.6207 35.1626 0.0510966 18.8611 -1.43411 -3.17025 1.51573 1.70675 -0.283582 2.32629 0.395545 6.84117 5.8858 -1.005 -2.08677 -49.8058 -4.51574 -0 0 0 -0 0 0 -1.98499e-014 4.03932e-013 2.36057e-014 29.0745 -22.916 80.2402 -8.90355 -3.50123 15.7608 -1.19708 29.4538 4.55205 -3.00873e-009 4.99017e-009 -8.91659e-010 -5.21178e-009 9.38616e-009 -1.46824e-009 -3.00873e-009 4.99016e-009 -8.91675e-010 7.73091 5.47488 0.417314 -3.00873e-009 4.99017e-009 -8.91672e-010 2.90554 0.965183 0.102902 -3.00872e-009 4.99016e-009 -8.91669e-010 10.2786 0.731801 0.0259123 -3.00874e-009 4.99017e-009 -8.91659e-010 2.22167 -0.733487 -0.20892 -2.01071e-014 4.03928e-013 2.33075e-014 8 4.72161e-009 -2.60833e-010 -6.22127e-011 2.7647e-010 -1.50504e-011 -1.56662e-012 1.38254e-009 -2.28246e-010 -1.37848e-010 3.59649e-009 -5.27603e-010 -2.3784e-010 6.21013e-009 -9.11089e-010 -1.37852e-010 3.59649e-009 -5.276e-010 -7.73091 5.47488 -0.417314 -1.37848e-010 3.59649e-009 -5.27606e-010 -2.90554 0.965183 -0.102902 -1.37847e-010 3.59649e-009 -5.27606e-010 -10.2786 0.731801 -0.0259123 -1.37841e-010 3.59649e-009 -5.2761e-010 -2.22167 -0.733487 0.20892 -2.03217e-016 0 -3.88251e-019 -26.7184 -67.9841 -20.7846 0.00944509 1.29754 0.0850651 0.632772 2.26671 -0.0474743 2.03217e-016 0 3.88251e-019 27.1745 -70.5691 17.3607 0.00179656 -0.986913 0.0146412 -0.617251 3.57603 0.0312141 
